<?xml version="1.0" encoding="utf-8"?>
<!-- Generator: Adobe Illustrator 27.3.1, SVG Export Plug-In . SVG Version: 6.00 Build 0)  -->
<svg version="1.1" id="Camada_1" xmlns="http://www.w3.org/2000/svg" xmlns:xlink="http://www.w3.org/1999/xlink" x="0px" y="0px"
	 viewBox="0 0 500 500" style="enable-background:new 0 0 500 500;" xml:space="preserve">
<style type="text/css">
	.st0{fill:#FFFFFF;stroke:#000000;stroke-miterlimit:10;}
	.st1{fill:#FFFFFF;stroke:#000000;stroke-width:2;stroke-miterlimit:10;}
	.st2{fill:none;stroke:#000000;stroke-miterlimit:10;}
	.st3{fill:none;stroke:#000000;stroke-width:2;stroke-miterlimit:10;}
	.st4{fill-rule:evenodd;clip-rule:evenodd;fill:#FFFFFF;}
	.st5{fill:#FFFFFF;}
</style>
<g>
	<g>
		<g>
			<g>
				<g>
					<g>
						<path class="st0" d="M254.6,449.7L254.6,449.7c-82.6,0-149.6-67-149.6-149.6v-165h299.2v165.1
							C404.1,382.8,337.2,449.7,254.6,449.7z"/>
						<path class="st1" d="M262.7,441.3c10.2-0.5,57.7-3.8,95.9-43.4c37.8-39.2,39.8-86.1,40-96.5v-4.9H262.2
							C262.4,344.7,262.6,393,262.7,441.3z"/>
						<g>
							<line class="st2" x1="255.4" y1="136.4" x2="255.4" y2="451"/>
							<line class="st2" x1="403.1" y1="290.9" x2="106.1" y2="290.9"/>
						</g>
						<g>
							<g>
								<path id="SVGID_1_" d="M248.4,441.3c-10.2-0.5-57.7-3.8-95.9-43.4c-37.8-39.2-39.8-86.1-40-96.5v-4.9H249
									C248.8,344.7,248.6,393,248.4,441.3z"/>
							</g>
							<g>
								<path id="SVGID_00000002355909799376135110000014464178387707476889_" class="st3" d="M248.4,441.3
									c-10.2-0.5-57.7-3.8-95.9-43.4c-37.8-39.2-39.8-86.1-40-96.5v-4.9H249C248.8,344.7,248.6,393,248.4,441.3z"/>
							</g>
						</g>
						<g>
							<g>
								<g>
									<rect id="SVGID_00000152255588125896019240000015661386751404398527_" x="262.2" y="143.1" width="136.4" height="141.9"/>
								</g>
								<g>
									
										<rect id="SVGID_00000080886704972733103680000013058738004753879950_" x="262.2" y="143.1" class="st3" width="136.4" height="141.9"/>
								</g>
							</g>
						</g>
						<g>
							<g>
								<ellipse cx="327.9" cy="329.3" rx="11.9" ry="6.9"/>
								<ellipse cx="327.9" cy="381.2" rx="11.9" ry="6.9"/>
								<ellipse transform="matrix(0.866 -0.5 0.5 0.866 -143.1908 202.0276)" cx="305.4" cy="368.2" rx="6.9" ry="11.9"/>
								<ellipse transform="matrix(0.5 -0.866 0.866 0.5 -143.7576 487.4532)" cx="350.3" cy="368.2" rx="11.9" ry="6.9"/>
								<ellipse transform="matrix(0.5 -0.866 0.866 0.5 -143.7049 435.5593)" cx="305.4" cy="342.2" rx="11.9" ry="6.9"/>
								<ellipse transform="matrix(0.866 -0.5 0.5 0.866 -124.1704 220.9857)" cx="350.3" cy="342.2" rx="6.9" ry="11.9"/>
							</g>
						</g>
						<g>
							<rect x="112.5" y="143.1" class="st1" width="136.4" height="141.9"/>
						</g>
					</g>
					<g>
						<path id="inc_00000016769586257809475600000011969777106536797585_" class="st4" d="M364.7,225.9c-2.1,0.8-3.3,3-2.7,5
							c0.7,2,3,3,5.1,2.2s3.3-3,2.7-5C369.1,226.2,366.8,225.2,364.7,225.9L364.7,225.9z M295,205.5c0.6,0,0.8,0.3,0.8,0.8v26.2
							c0,0.6-0.3,0.8-0.8,0.8h-5.5c-0.6,0-0.8-0.3-0.8-0.8v-26.2c0-0.6,0.3-0.8,0.8-0.8H295L295,205.5z M317.7,205.3
							c6.1,0,8.2,4.1,8.2,9.8v17.5c0,0.6-0.3,0.8-0.8,0.8h-5.5c-0.6,0-0.8-0.3-0.8-0.8v-18.3c0-1.9-1.4-2.6-3-2.6H315
							c-2.4,0-4.1,1-4.7,2v18.8c0,0.6-0.3,0.8-0.8,0.8H304c-0.6,0-0.8-0.3-0.8-0.8v-26.2c0-0.6,0.3-0.8,0.8-0.8h5.5
							c0.6,0,0.8,0.3,0.8,0.8v2.5c0.8-1.4,3-3.5,7.1-3.5H317.7L317.7,205.3z M338.9,194.3c0.6,0,0.8,0.3,0.8,0.8v19.3l7.9-8.4
							c0.3-0.4,0.8-0.7,1.3-0.7h5.7c0.7,0,1.4,0.8,0.4,1.9l-8.3,8.9l9.7,15.6c0.3,0.6,0.3,1.5-0.7,1.5h-5.2c-0.7,0-1.4-0.2-1.8-1
							l-6.8-11.3l-2.2,2.2v9.3c0,0.6-0.3,0.8-0.8,0.8h-5.5c-0.6,0-0.8-0.3-0.8-0.8V195c0-0.6,0.3-0.8,0.8-0.8h5.5V194.3z
							 M291.1,195.7c-2.1,0.6-3.4,2.7-2.8,4.7c0.5,2,2.7,3.1,4.8,2.4c2.1-0.6,3.4-2.7,2.8-4.7C295.4,196.1,293.2,195,291.1,195.7
							L291.1,195.7z"/>
						<path class="st4" d="M364,219.4h-1.2c-0.6,0-0.8-0.3-0.8-0.8v-23.4c0-0.6,0.3-0.8,0.8-0.8h5.7c0.6,0,0.8,0.3,0.8,0.8v0.8
							c-2.2,0.5-3.8,2.7-4,5.5c-0.1,2.2,0.8,4.2,2.3,5.3c-1.1,0.7-1.9,2-2.1,3.5c-0.2,1.6,0.3,3.2,1.3,4.2c-1,0.4-1.9,1.4-2.5,2.5
							C364,217.8,363.9,218.7,364,219.4L364,219.4z"/>
						<path class="st4" d="M365.8,217.5c-0.4,0.9-0.1,1.9,0.7,2.2c0.8,0.3,1.8-0.3,2.2-1.2c0.4-0.9,0.1-1.9-0.7-2.2
							C367.2,216.1,366.2,216.6,365.8,217.5z M367.3,210.6c-0.3,1.5,0.5,2.8,1.7,3.1c1.2,0.2,2.5-0.8,2.7-2.2
							c0.3-1.5-0.5-2.8-1.7-3.1S367.5,209.1,367.3,210.6z M366.9,202c-0.1,2,1.2,3.7,2.9,3.8c1.7,0.1,3.1-1.4,3.2-3.4
							s-1.2-3.7-2.9-3.8C368.5,198.4,367,200,366.9,202L366.9,202z"/>
					</g>
				</g>
				<path class="st5" d="M204.7,332.7L185.6,344h-0.7l-14.3-8.2l10.6-6.1l-5.2-3.3c-3.4,2.1-6.9,4.2-10.3,6.4c0,1.9,0,3.8,0,5.6
					c4.8,2.8,9.6,5.6,14.3,8.5l-14.3,8.2v6.1l14.1,8.2l-14.3,8.5l0.2,5.9c6.5-3.8,13-7.5,19.5-11.3c4.7,2.7,9.4,5.5,14.1,8.2
					l-10.3,6.1l5.2,3.1c3.5-2.1,7.1-4.2,10.6-6.4c-0.1-1.9-0.2-3.8-0.2-5.6l-13.9-8.5l13.9-8.2v-5.9l-14.3-8.5l14.6-8.2v-5.9H204.7z
					 M199.5,358.1l-14.6,8.5l-14.1-8.5l14.6-8.2L199.5,358.1z"/>
			</g>
		</g>
	</g>
	<g>
		<g>
			<g>
				<g>
					<g>
						<path d="M120.5,101.2c-0.7,1-1.5,1.7-2.5,2.3c-1,0.5-2,0.8-3.2,0.8s-2.3-0.3-3.3-0.8c-1-0.6-1.7-1.3-2.2-2.3s-0.8-2.1-0.8-3.4
							s0.3-2.4,0.8-3.4s1.3-1.8,2.2-2.3c1-0.6,2-0.8,3.3-0.8c1.1,0,2.2,0.3,3.2,0.8s1.8,1.3,2.5,2.3s1.2,2.1,1.5,3.4
							C121.7,99.1,121.2,100.3,120.5,101.2z M111.2,100.3c0.4,0.7,0.9,1.3,1.6,1.7c0.7,0.4,1.5,0.6,2.3,0.6c1.3,0,2.5-0.4,3.5-1.3
							s1.8-2,2.4-3.5c-0.6-1.5-1.4-2.7-2.4-3.5c-1-0.9-2.2-1.3-3.5-1.3c-0.9,0-1.7,0.2-2.3,0.6c-0.7,0.4-1.2,1-1.6,1.7
							s-0.6,1.6-0.6,2.5C110.7,98.7,110.8,99.6,111.2,100.3z M120.8,99.3l0.6-1.5l-0.6-1.5l0.4-4.7h2.1l-0.6,6.3l0.6,6.3h-2.1
							L120.8,99.3z"/>
						<path d="M142.7,102.5c-0.5,0.6-1.2,1.1-2.1,1.4c-0.9,0.3-2,0.5-3.3,0.5s-2.5-0.2-3.6-0.6c-1-0.4-1.8-0.9-2.4-1.6
							c-0.6-0.7-0.9-1.5-0.9-2.3h2.1c0.1,0.6,0.3,1.1,0.8,1.5c0.4,0.4,1,0.8,1.7,1s1.5,0.4,2.4,0.4s1.6-0.1,2.2-0.3
							c0.6-0.2,1.1-0.4,1.4-0.8s0.5-0.7,0.5-1.2c0-0.4-0.1-0.7-0.3-0.9c-0.2-0.2-0.6-0.4-1-0.5c-0.5-0.1-1.2-0.3-2-0.4l-2.4-0.2
							c-1.7-0.2-3-0.5-3.7-1.1c-0.8-0.6-1.1-1.4-1.1-2.3c0-1.2,0.5-2.1,1.6-2.8c1.1-0.7,2.5-1,4.3-1c1.2,0,2.3,0.2,3.3,0.5
							s1.8,0.9,2.3,1.5c0.6,0.6,0.9,1.4,1,2.2h-2.1c-0.1-0.8-0.6-1.4-1.4-1.9c-0.8-0.5-1.9-0.7-3.3-0.7c-1.2,0-2.1,0.2-2.8,0.5
							s-1,0.8-1,1.5c0,0.5,0.2,0.9,0.7,1.2c0.4,0.3,1.2,0.5,2.3,0.6l2.8,0.3c1.2,0.1,2.2,0.3,2.9,0.6c0.7,0.3,1.2,0.7,1.6,1.1
							c0.3,0.5,0.5,1.1,0.5,1.7C143.4,101.2,143.2,101.9,142.7,102.5z"/>
						<path d="M162.4,102.5c-0.5,0.6-1.2,1.1-2.1,1.4c-0.9,0.3-2,0.5-3.3,0.5s-2.5-0.2-3.6-0.6c-1-0.4-1.8-0.9-2.4-1.6
							c-0.6-0.7-0.9-1.5-0.9-2.3h2.1c0.1,0.6,0.3,1.1,0.8,1.5c0.4,0.4,1,0.8,1.7,1s1.5,0.4,2.4,0.4s1.6-0.1,2.2-0.3
							c0.6-0.2,1.1-0.4,1.4-0.8s0.5-0.7,0.5-1.2c0-0.4-0.1-0.7-0.3-0.9c-0.2-0.2-0.6-0.4-1-0.5c-0.5-0.1-1.2-0.3-2-0.4l-2.4-0.2
							c-1.7-0.2-3-0.5-3.7-1.1c-0.8-0.6-1.1-1.4-1.1-2.3c0-1.2,0.5-2.1,1.6-2.8c1.1-0.7,2.5-1,4.3-1c1.2,0,2.3,0.2,3.3,0.5
							s1.8,0.9,2.3,1.5c0.6,0.6,0.9,1.4,1,2.2h-2.1c-0.1-0.8-0.6-1.4-1.4-1.9c-0.8-0.5-1.9-0.7-3.3-0.7c-1.2,0-2.1,0.2-2.8,0.5
							s-1,0.8-1,1.5c0,0.5,0.2,0.9,0.7,1.2c0.4,0.3,1.2,0.5,2.3,0.6l2.8,0.3c1.2,0.1,2.2,0.3,2.9,0.6c0.7,0.3,1.2,0.7,1.6,1.1
							c0.3,0.5,0.5,1.1,0.5,1.7C163.1,101.2,162.8,101.9,162.4,102.5z"/>
						<path d="M172.8,103.6c-0.8-0.5-1.4-1.1-1.8-2c-0.4-0.9-0.6-2-0.6-3.2v-6.9h2V98c0,1.5,0.3,2.6,1,3.4s1.6,1.2,2.9,1.2
							c0.9,0,1.7-0.2,2.3-0.6c0.7-0.4,1.2-1,1.6-1.7c0.4-0.7,0.6-1.6,0.6-2.6l0.8,0.4c-0.1,1.3-0.4,2.4-0.9,3.3s-1.2,1.7-2.1,2.2
							c-0.9,0.5-1.8,0.8-2.9,0.8C174.6,104.3,173.6,104.1,172.8,103.6z M180.8,99.8v-8.3h2v8.6l0.7,3.9h-2L180.8,99.8z"/>
						<path d="M192.6,91.5l0.7,4.3v8.3h-2v-8.6l-0.7-3.9h2V91.5z M199,93.1c-0.4,0-0.7-0.1-1.1-0.1c-0.9,0-1.7,0.2-2.4,0.6
							s-1.2,1-1.6,1.8c-0.4,0.8-0.6,1.7-0.6,2.7l-0.6-0.8c0-1.2,0.3-2.2,0.7-3.1s1.1-1.6,1.9-2.2c0.8-0.5,1.7-0.8,2.8-0.8
							c0.3,0,0.7,0,1,0.1c0.3,0,0.6,0.1,0.8,0.2v1.8C199.7,93.2,199.4,93.2,199,93.1z"/>
						<path d="M218,101.2c-0.7,1-1.5,1.7-2.5,2.3c-1,0.5-2,0.8-3.2,0.8s-2.3-0.3-3.3-0.8c-1-0.6-1.7-1.3-2.2-2.3s-0.8-2.1-0.8-3.4
							s0.3-2.4,0.8-3.4s1.3-1.8,2.2-2.3c1-0.6,2-0.8,3.3-0.8c1.1,0,2.2,0.3,3.2,0.8s1.8,1.3,2.5,2.3s1.2,2.1,1.5,3.4
							C219.2,99.1,218.7,100.3,218,101.2z M208.8,100.3c0.4,0.7,0.9,1.3,1.6,1.7c0.7,0.4,1.5,0.6,2.3,0.6c1.3,0,2.5-0.4,3.5-1.3
							s1.8-2,2.4-3.5c-0.6-1.5-1.4-2.7-2.4-3.5c-1-0.9-2.2-1.3-3.5-1.3c-0.9,0-1.7,0.2-2.3,0.6c-0.7,0.4-1.2,1-1.6,1.7
							c-0.4,0.7-0.6,1.6-0.6,2.5C208.2,98.7,208.4,99.6,208.8,100.3z M218.3,99.3l0.6-1.5l-0.6-1.5l0.4-4.7h2.1l-0.6,6.3l0.6,6.3
							h-2.1L218.3,99.3z"/>
						<path d="M230.2,91.5l0.7,4.2v8.3h-2v-8.6l-0.7-4L230.2,91.5L230.2,91.5z M239.1,91.9c0.8,0.5,1.4,1.1,1.9,2
							c0.4,0.9,0.6,2,0.6,3.2v6.9h-2v-6.5c0-1.5-0.3-2.6-1-3.4s-1.7-1.2-3-1.2c-0.9,0-1.7,0.2-2.4,0.6s-1.2,1-1.6,1.7
							c-0.4,0.7-0.6,1.6-0.6,2.6l-0.8-0.6c0.1-1.2,0.4-2.3,1-3.2c0.5-0.9,1.2-1.6,2.1-2.1c0.9-0.5,1.9-0.7,2.9-0.7
							C237.3,91.2,238.2,91.5,239.1,91.9z"/>
						<path d="M261.7,101.9c-0.6,0.8-1.5,1.4-2.5,1.8s-2.1,0.6-3.3,0.6c-1.4,0-2.6-0.3-3.7-0.8c-1.1-0.6-1.9-1.3-2.5-2.3
							s-0.9-2.1-0.9-3.4s0.3-2.4,0.9-3.4c0.6-1,1.4-1.8,2.5-2.3c1.1-0.6,2.3-0.8,3.7-0.8c1.2,0,2.3,0.2,3.3,0.6s1.8,1,2.5,1.8
							s1,1.6,1.2,2.6h-2.1c-0.2-1-0.8-1.8-1.7-2.4c-0.9-0.6-2-0.9-3.2-0.9c-1,0-1.9,0.2-2.6,0.6c-0.8,0.4-1.3,1-1.7,1.7
							s-0.6,1.6-0.6,2.6s0.2,1.8,0.6,2.6c0.4,0.7,1,1.3,1.7,1.7c0.8,0.4,1.6,0.6,2.6,0.6c1.3,0,2.3-0.3,3.2-0.9s1.4-1.4,1.6-2.4h2.1
							C262.8,100.3,262.4,101.2,261.7,101.9z"/>
						<path d="M273,103.5c-1.1-0.6-2-1.3-2.6-2.3s-0.9-2.1-0.9-3.4s0.3-2.4,0.9-3.4s1.4-1.8,2.5-2.3c1.1-0.6,2.3-0.8,3.6-0.8
							c1.3,0,2.5,0.3,3.5,0.9s1.8,1.4,2.4,2.5s0.8,2.3,0.8,3.7H271v-1.6h11.3l-1.2,0.8c0-0.9-0.3-1.7-0.7-2.4
							c-0.4-0.7-0.9-1.2-1.6-1.6s-1.5-0.6-2.4-0.6c-1,0-1.8,0.2-2.5,0.6s-1.3,0.9-1.7,1.7c-0.4,0.7-0.6,1.6-0.6,2.5
							c0,1,0.2,1.9,0.7,2.6s1.1,1.3,1.9,1.7c0.8,0.4,1.8,0.6,2.9,0.6c1,0,2-0.2,3-0.5s1.9-0.8,2.7-1.4v1.6c-0.8,0.6-1.7,1.1-2.8,1.5
							s-2.1,0.5-3.2,0.5C275.4,104.3,274.1,104.1,273,103.5z"/>
						<path d="M303.7,86.9V104h-2V86.9H303.7z"/>
						<path d="M314.7,103.5c-1.1-0.6-2-1.3-2.6-2.3s-0.9-2.1-0.9-3.4s0.3-2.4,0.9-3.4s1.4-1.8,2.5-2.3c1.1-0.6,2.3-0.8,3.6-0.8
							c1.3,0,2.5,0.3,3.5,0.9s1.8,1.4,2.4,2.5s0.8,2.3,0.8,3.7h-12.1v-1.6H324l-1.2,0.8c0-0.9-0.3-1.7-0.7-2.4
							c-0.4-0.7-0.9-1.2-1.6-1.6S319,93,318.1,93c-1,0-1.8,0.2-2.5,0.6s-1.3,0.9-1.7,1.7c-0.4,0.7-0.6,1.6-0.6,2.5
							c0,1,0.2,1.9,0.7,2.6s1.1,1.3,1.9,1.7c0.8,0.4,1.8,0.6,2.9,0.6c1,0,2-0.2,3-0.5s1.9-0.8,2.7-1.4v1.6c-0.8,0.6-1.7,1.1-2.8,1.5
							s-2.1,0.5-3.2,0.5C317.1,104.3,315.8,104.1,314.7,103.5z"/>
						<path d="M334.5,102.5c-0.9-0.5-1.6-1.2-2.2-2.1s-0.8-2-0.8-3.1c0-1.2,0.3-2.2,0.8-3.1s1.2-1.6,2.2-2.1
							c0.9-0.5,1.9-0.8,3.1-0.8c1.3,0,2.5,0.3,3.6,1s2,1.5,2.6,2.4s0.9,1.8,0.9,2.6c0,0.8-0.3,1.7-0.9,2.7c-0.6,0.9-1.5,1.7-2.6,2.4
							c-1.1,0.6-2.3,1-3.6,1C336.4,103.3,335.4,103,334.5,102.5z M343.9,98.8l0.1-0.3v-2.1l-0.1-0.4v-4.4h2v9.2c0,1.6-0.3,2.9-1,4
							s-1.5,1.9-2.7,2.4s-2.4,0.8-3.9,0.8c-1.1,0-2.1-0.2-3-0.5s-1.8-0.8-2.6-1.4v-1.8c0.8,0.7,1.7,1.2,2.7,1.5
							c0.9,0.3,1.9,0.5,2.9,0.5c1.8,0,3.2-0.5,4.2-1.4s1.4-2.2,1.4-3.9V98.8z M341.4,100.6c1-0.7,1.9-1.8,2.7-3.3
							c-0.8-1.5-1.7-2.6-2.7-3.3c-1-0.7-2.1-1.1-3.3-1.1c-0.9,0-1.7,0.2-2.4,0.6c-0.7,0.4-1.2,0.9-1.5,1.5c-0.3,0.7-0.5,1.4-0.5,2.3
							s0.2,1.6,0.5,2.3c0.3,0.7,0.9,1.2,1.5,1.5c0.7,0.4,1.5,0.6,2.4,0.6C339.3,101.6,340.4,101.3,341.4,100.6z"/>
						<path d="M354.1,89.3c-0.3-0.3-0.4-0.6-0.4-1s0.1-0.7,0.4-1s0.6-0.4,1.1-0.4c0.4,0,0.8,0.1,1.1,0.4c0.3,0.3,0.4,0.6,0.4,1
							s-0.1,0.7-0.4,1s-0.6,0.4-1.1,0.4C354.7,89.6,354.3,89.5,354.1,89.3z M355.1,91.7l1-0.2v12.6h-2V91.5L355.1,91.7z"/>
						<path d="M367.2,103.5c-1.1-0.6-2-1.3-2.6-2.3s-0.9-2.1-0.9-3.4s0.3-2.4,0.9-3.4s1.5-1.8,2.6-2.3s2.4-0.8,3.9-0.8
							s2.7,0.3,3.9,0.8c1.1,0.6,2,1.3,2.6,2.3s0.9,2.1,0.9,3.4s-0.3,2.4-0.9,3.4s-1.5,1.7-2.6,2.3c-1.1,0.6-2.4,0.8-3.9,0.8
							S368.3,104.1,367.2,103.5z M373.9,102.1c0.8-0.4,1.4-1,1.9-1.7c0.4-0.7,0.7-1.6,0.7-2.6s-0.2-1.8-0.7-2.6
							c-0.4-0.7-1.1-1.3-1.9-1.7c-0.8-0.4-1.8-0.6-2.8-0.6c-1.1,0-2,0.2-2.8,0.6s-1.4,1-1.9,1.7c-0.4,0.7-0.7,1.6-0.7,2.6
							s0.2,1.8,0.7,2.6c0.4,0.7,1.1,1.3,1.9,1.7c0.8,0.4,1.8,0.6,2.8,0.6S373.1,102.5,373.9,102.1z"/>
						<path d="M387.4,91.5l0.7,4.2v8.3h-2v-8.6l-0.7-4L387.4,91.5L387.4,91.5z M396.3,91.9c0.8,0.5,1.4,1.1,1.9,2
							c0.4,0.9,0.6,2,0.6,3.2v6.9h-2v-6.5c0-1.5-0.3-2.6-1-3.4s-1.7-1.2-3-1.2c-0.9,0-1.7,0.2-2.4,0.6s-1.2,1-1.6,1.7
							s-0.6,1.6-0.6,2.6l-0.8-0.6c0.1-1.2,0.4-2.3,1-3.2c0.5-0.9,1.2-1.6,2.1-2.1s1.9-0.7,2.9-0.7C394.5,91.2,395.4,91.5,396.3,91.9
							z"/>
					</g>
				</g>
			</g>
			<g>
				<path d="M132.7,13.9c-4.5,0-8.9,0.6-10.7,1.1c-2.6,0.7-3.2,1.9-3.7,4.2L108,66.8c-0.2,1-0.3,1.8-0.3,2.6c0,2.4,1.5,3.9,4.1,3.9
					c2.8,0,3.9-1.8,4.5-4.5l2.9-13.6c2,0.2,4.7,0.5,8.5,0.5c16.8,0,27.3-9.1,27.3-22.8C154.9,20.8,146.5,13.9,132.7,13.9z
					 M127.2,47.8c-2.6,0-4.6-0.1-6.5-0.3l5.4-25.3c1.7-0.2,4.2-0.6,6.8-0.6c8.9,0,13.5,4.2,13.5,11.2
					C146.4,41.8,140,47.8,127.2,47.8L127.2,47.8z"/>
				<path d="M397.3,57.6c-1.4,0-2.3,0.8-4,2.7c-3,3.1-4.9,4.8-7.2,4.8c-2.1,0-3.2-1.7-3.2-4.5c0-1.5,0.3-3.4,0.7-5.4l3-14.1h9
					c2.8,0,4.5-1.6,4.5-4.5c0-1.6-1.1-2.8-3.5-2.8h-8.4l1.5-6.6c0.2-1,0.3-1.9,0.3-2.7c0-2.3-1.5-3.9-4.1-3.9
					c-2.7,0-3.9,1.8-4.5,4.5l-1.9,8.6h-3.8c-2.9,0-4.6,1.6-4.6,4.5c0,1.6,1.1,2.8,3.6,2.8h3.3l-3,14c-0.3,1.5-0.7,4.1-0.7,6.7
					c0,6.6,3.4,11.4,10.7,11.4c4.2,0,8-2.1,10.8-4.6c2.8-2.4,4.8-5.4,4.8-7.4C400.6,59.1,399.2,57.6,397.3,57.6z"/>
				<path d="M210.5,18.7c0-2.4-1.6-3.9-4.1-3.9c-2.7,0-3.9,1.8-4.5,4.5l-10.2,47.2c-0.2,1-0.4,1.8-0.4,2.6c0,2.4,1.6,3.9,4.1,3.9
					c2.8,0,4-1.8,4.5-4.5l10.2-47.2C210.3,20.3,210.5,19.5,210.5,18.7z"/>
				<path d="M355.5,32.8c-13,0-21.8,12.9-21.8,25.2c0,0.2,0,0.5,0,0.7c-2,3.1-4.6,6.3-6.4,6.3c-1.3,0-1.8-1.2-1.8-3.1
					c0-2.3,0.6-6.1,1.4-9.4l6.7-31.2c0.2-1,0.3-1.8,0.3-2.6c0-2.4-1.5-3.9-4.1-3.9c-2.8,0-3.9,1.8-4.5,4.5l-3.7,16.9
					c-2-2-4.8-3.4-9.1-3.4c-8.6,0-17.3,6.6-20.7,16.8c-3.7,9.6-7.1,15.3-9.7,15.3c-1,0-1.5-0.8-1.5-2.2c0-4.1,2.3-14,3.2-18.8
					c0.3-1.8,0.5-2.5,0.5-3.6c0-3.6-5.9-7.8-13.6-7.8c-8.9,0-17,5.6-21.1,14c-6,10.6-11.5,18.3-14.3,18.3c-1.2,0-1.6-1.5-1.9-3
					l-2-11.2l12.4-10.2c1.1-1,2.6-2.4,2.6-4.1c0-2.2-1.5-3.7-3.7-3.7c-1.6,0-3,1-4.4,2.1l-18.7,15.4l6.3-29.1c0.2-1,0.4-1.8,0.4-2.6
					c0-2.4-1.6-3.9-4.1-3.9c-2.7,0-3.9,1.8-4.5,4.5l-10.2,47.2c-0.2,1-0.4,1.8-0.4,2.6c0,2.4,1.6,3.9,4.1,3.9c2.8,0,4-1.8,4.5-4.5
					l1.3-6.1l7.6-6.2l1.9,9.4c0.7,3.7,2.7,7.4,7.7,7.4s8.9-4.6,12.9-10.8c1.2,6.5,5.8,10.8,12.2,10.8s10.8-3.8,13.6-8.9V64
					c0,5.3,2.7,8.8,7.4,8.8c4.3,0,7.8-2.6,11-8c1.8,4.8,5.8,8,11.4,8c6.6,0,11.3-4,14.3-9.5V64c0,5.8,2.9,9,7.7,9
					c4.2,0,7.8-2.5,10.9-6.5c2.3,4,6.5,6.5,12.2,6.5c13,0,21.8-12.9,21.8-25.3C369.8,39.1,364.5,32.8,355.5,32.8z M274.5,49.3
					c-2.4,10.2-7.4,15.9-13.1,15.9c-3.8,0-5.9-2.9-5.9-7.3c0-8.6,6.3-17.9,14.6-17.9c2.5,0,4.5,0.7,6.2,1.8L274.5,49.3z M319.7,45
					c-2.6,11.9-8.5,20.2-15,20.2c-3.6,0-5.7-2.8-5.7-7.3c0-8.7,6-17.7,14-17.7c3.1,0,5.4,1.1,7.1,2.4L319.7,45z M348.9,65.2
					c-4.7,0-6.7-3.4-6.7-7.7c0-7.9,5.4-16.9,12.3-16.9c4.7,0,6.7,3.4,6.7,7.7C361.2,56.3,355.7,65.2,348.9,65.2z"/>
				<path d="M175.1,32.8c-13,0-21.8,12.9-21.8,25.2c0,8.8,5.3,15,14.3,15c13,0,21.8-12.9,21.8-25.3
					C189.4,39.1,184.1,32.8,175.1,32.8z M168.5,65.2c-4.7,0-6.7-3.4-6.7-7.7c0-7.9,5.4-16.9,12.3-16.9c4.7,0,6.7,3.4,6.7,7.7
					C180.8,56.3,175.4,65.2,168.5,65.2z"/>
			</g>
		</g>
		<g>
			<g>
				<g>
					<g>
						<path d="M110.6,480.3v3l-0.1,0.3v1.7l0.1,0.5v5.5h-2v-11H110.6z M110.8,482.2c0.4-0.7,1-1.2,1.6-1.6c0.7-0.4,1.4-0.6,2.2-0.6
							c0.8,0,1.6,0.2,2.2,0.6s1.2,0.9,1.5,1.6c0.4,0.7,0.5,1.5,0.5,2.3c0,0.9-0.2,1.6-0.5,2.3c-0.4,0.7-0.9,1.2-1.5,1.6
							s-1.4,0.6-2.2,0.6c-0.8,0-1.5-0.2-2.1-0.6s-1.2-0.9-1.6-1.6s-0.8-1.5-1-2.3C110.1,483.6,110.4,482.9,110.8,482.2z M116.5,483
							c-0.2-0.4-0.6-0.8-1-1s-0.9-0.4-1.4-0.4c-0.8,0-1.5,0.3-2.1,0.8s-1.1,1.2-1.5,2.1c0.3,0.9,0.8,1.6,1.4,2.1s1.3,0.8,2.1,0.8
							c0.5,0,1-0.1,1.4-0.4c0.4-0.2,0.7-0.6,1-1c0.2-0.4,0.4-0.9,0.4-1.5C116.9,484,116.8,483.5,116.5,483z"/>
						<path d="M126.1,488.4c-0.8-0.4-1.4-0.9-1.8-1.6s-0.6-1.5-0.6-2.3c0-0.9,0.2-1.7,0.6-2.3s1-1.2,1.8-1.6s1.7-0.6,2.7-0.6
							c1,0,1.9,0.2,2.7,0.6s1.4,0.9,1.8,1.6s0.6,1.5,0.6,2.3c0,0.9-0.2,1.7-0.6,2.3s-1,1.2-1.8,1.6s-1.7,0.6-2.7,0.6
							S126.9,488.8,126.1,488.4z M130.5,487.1c0.5-0.2,0.9-0.6,1.1-1c0.3-0.4,0.4-1,0.4-1.6s-0.1-1.1-0.4-1.6
							c-0.3-0.4-0.6-0.8-1.1-1s-1-0.4-1.7-0.4s-1.2,0.1-1.7,0.4s-0.9,0.6-1.1,1c-0.3,0.4-0.4,1-0.4,1.6s0.1,1.1,0.4,1.6
							c0.3,0.4,0.6,0.8,1.1,1s1,0.4,1.7,0.4S130.1,487.3,130.5,487.1z"/>
						<path d="M141.2,477.2v11.6h-2v-11.6H141.2z"/>
						<path d="M148.3,486.9l5.4-6.6h2.3l-7.2,8.5H147v-11.6h2v9.9L148.3,486.9z M152.6,483.3l3.6,5.5h-2.3l-2.6-4.2L152.6,483.3z"/>
						<path d="M168.4,486.9c-0.4,0.7-1,1.2-1.6,1.6s-1.4,0.6-2.1,0.6c-0.8,0-1.6-0.2-2.2-0.6c-0.6-0.4-1.2-0.9-1.5-1.6
							s-0.5-1.5-0.5-2.3c0-0.9,0.2-1.6,0.5-2.3s0.9-1.2,1.5-1.6s1.4-0.6,2.2-0.6s1.5,0.2,2.2,0.6s1.2,0.9,1.6,1.6
							c0.4,0.7,0.8,1.5,0.9,2.3C169.2,485.4,168.9,486.2,168.4,486.9z M162.7,486c0.2,0.4,0.6,0.8,1,1s0.9,0.4,1.4,0.4
							c0.8,0,1.5-0.3,2.1-0.8s1.1-1.2,1.4-2.1c-0.3-0.9-0.8-1.6-1.5-2.1s-1.3-0.8-2.1-0.8c-0.5,0-1,0.1-1.4,0.4
							c-0.4,0.2-0.7,0.6-1,1c-0.2,0.4-0.4,0.9-0.4,1.5C162.4,485.1,162.5,485.6,162.7,486z M168.4,485.6l0.4-1.1l-0.4-1.1l0.3-3.2h2
							l-0.5,4.3l0.5,4.3h-2L168.4,485.6z"/>
						<path d="M183.9,486.9c-0.4,0.7-1,1.2-1.6,1.6s-1.4,0.6-2.1,0.6c-0.8,0-1.6-0.2-2.2-0.6c-0.6-0.4-1.2-0.9-1.5-1.6
							s-0.5-1.5-0.5-2.3c0-0.9,0.2-1.6,0.5-2.3s0.9-1.2,1.5-1.6s1.4-0.6,2.2-0.6s1.5,0.2,2.2,0.6s1.2,0.9,1.6,1.6
							c0.4,0.7,0.8,1.5,0.9,2.3C184.7,485.4,184.3,486.2,183.9,486.9z M178.2,486c0.2,0.4,0.6,0.8,1,1s0.9,0.4,1.4,0.4
							c0.8,0,1.5-0.3,2.1-0.8s1.1-1.2,1.4-2.1c-0.3-0.9-0.8-1.6-1.5-2.1s-1.3-0.8-2.1-0.8c-0.5,0-1,0.1-1.4,0.4
							c-0.4,0.2-0.7,0.6-1,1c-0.2,0.4-0.4,0.9-0.4,1.5C177.8,485.1,178,485.6,178.2,486z M183.9,485.6l0.4-1l-0.4-1.2l0.6-6.2h2
							l-0.8,7.2l0.4,4.4h-2L183.9,485.6z"/>
						<path d="M193.8,488.4c-0.8-0.4-1.4-0.9-1.8-1.6s-0.6-1.5-0.6-2.3c0-0.9,0.2-1.7,0.6-2.3s1-1.2,1.8-1.6s1.7-0.6,2.7-0.6
							s1.9,0.2,2.7,0.6s1.4,0.9,1.8,1.6s0.6,1.5,0.6,2.3c0,0.9-0.2,1.7-0.6,2.3s-1,1.2-1.8,1.6s-1.7,0.6-2.7,0.6
							S194.6,488.8,193.8,488.4z M198.2,487.1c0.5-0.2,0.9-0.6,1.1-1c0.3-0.4,0.4-1,0.4-1.6s-0.1-1.1-0.4-1.6
							c-0.3-0.4-0.6-0.8-1.1-1s-1-0.4-1.7-0.4s-1.2,0.1-1.7,0.4s-0.9,0.6-1.1,1c-0.3,0.4-0.4,1-0.4,1.6s0.1,1.1,0.4,1.6
							c0.3,0.4,0.6,0.8,1.1,1s1,0.4,1.7,0.4C197.1,487.5,197.7,487.3,198.2,487.1z"/>
						<path d="M205.9,480.9l1.8-0.5l0.8-2.4h1.1v2.2h4v1.5h-4v3.7c0,0.5,0.1,0.9,0.2,1.1s0.3,0.5,0.6,0.6s0.7,0.2,1.1,0.2
							c0.4,0,0.8,0,1.2-0.1c0.3-0.1,0.7-0.2,1-0.4v1.6c-0.3,0.2-0.7,0.3-1.2,0.4s-1,0.2-1.4,0.2c-1.2,0-2.1-0.3-2.6-0.9
							c-0.6-0.6-0.9-1.4-0.9-2.4v-4h-1.8L205.9,480.9L205.9,480.9z"/>
						<path d="M226.5,486.9c-0.4,0.7-1,1.2-1.6,1.6s-1.4,0.6-2.1,0.6c-0.8,0-1.6-0.2-2.2-0.6c-0.6-0.4-1.2-0.9-1.5-1.6
							s-0.5-1.5-0.5-2.3c0-0.9,0.2-1.6,0.5-2.3s0.9-1.2,1.5-1.6s1.4-0.6,2.2-0.6s1.5,0.2,2.2,0.6s1.2,0.9,1.6,1.6
							c0.4,0.7,0.8,1.5,0.9,2.3C227.2,485.4,226.9,486.2,226.5,486.9z M220.8,486c0.2,0.4,0.6,0.8,1,1s0.9,0.4,1.4,0.4
							c0.8,0,1.5-0.3,2.1-0.8s1.1-1.2,1.4-2.1c-0.3-0.9-0.8-1.6-1.5-2.1s-1.3-0.8-2.1-0.8c-0.5,0-1,0.1-1.4,0.4
							c-0.4,0.2-0.7,0.6-1,1c-0.2,0.4-0.4,0.9-0.4,1.5C220.4,485.1,220.5,485.6,220.8,486z M226.5,485.6l0.4-1.1l-0.4-1.1l0.3-3.2h2
							l-0.5,4.3l0.5,4.3h-2L226.5,485.6z"/>
						<path d="M242.7,487.7c-0.3,0.4-0.8,0.7-1.5,1c-0.7,0.2-1.5,0.3-2.4,0.3c-1,0-1.9-0.1-2.6-0.4s-1.3-0.6-1.7-1.1s-0.6-1-0.7-1.6
							h2c0.1,0.3,0.2,0.6,0.5,0.9c0.3,0.2,0.6,0.4,1.1,0.6c0.4,0.1,0.9,0.2,1.5,0.2c0.5,0,1,0,1.4-0.1s0.6-0.2,0.8-0.4
							s0.3-0.4,0.3-0.7c0-0.2-0.1-0.3-0.2-0.5c-0.1-0.1-0.3-0.2-0.6-0.3s-0.7-0.1-1.2-0.2l-1.7-0.2c-1.3-0.1-2.2-0.4-2.7-0.8
							s-0.8-1-0.8-1.7c0-0.9,0.4-1.5,1.2-2s1.8-0.7,3.1-0.7c0.9,0,1.7,0.1,2.4,0.4c0.7,0.2,1.3,0.6,1.7,1s0.6,0.9,0.7,1.5h-2
							c-0.1-0.4-0.3-0.7-0.8-1s-1.1-0.4-2-0.4c-0.7,0-1.3,0.1-1.6,0.3c-0.4,0.2-0.6,0.5-0.6,0.8c0,0.2,0.1,0.4,0.4,0.6
							s0.7,0.3,1.3,0.3l2.2,0.2c0.8,0.1,1.5,0.2,2,0.5c0.5,0.2,0.8,0.5,1.1,0.9c0.2,0.3,0.3,0.8,0.3,1.2
							C243.2,486.8,243,487.3,242.7,487.7z"/>
						<path d="M256.7,487.7c-0.3,0.4-0.8,0.7-1.5,1c-0.7,0.2-1.5,0.3-2.4,0.3c-1,0-1.9-0.1-2.6-0.4s-1.3-0.6-1.7-1.1s-0.6-1-0.7-1.6
							h2c0.1,0.3,0.2,0.6,0.5,0.9c0.3,0.2,0.6,0.4,1.1,0.6c0.4,0.1,0.9,0.2,1.5,0.2c0.5,0,1,0,1.4-0.1s0.6-0.2,0.8-0.4
							s0.3-0.4,0.3-0.7c0-0.2-0.1-0.3-0.2-0.5c-0.1-0.1-0.3-0.2-0.6-0.3s-0.7-0.1-1.2-0.2l-1.7-0.2c-1.3-0.1-2.2-0.4-2.7-0.8
							s-0.8-1-0.8-1.7c0-0.9,0.4-1.5,1.2-2s1.8-0.7,3.1-0.7c0.9,0,1.7,0.1,2.4,0.4c0.7,0.2,1.3,0.6,1.7,1c0.4,0.4,0.6,0.9,0.7,1.5
							h-2c-0.1-0.4-0.3-0.7-0.8-1s-1.1-0.4-2-0.4c-0.7,0-1.3,0.1-1.6,0.3c-0.4,0.2-0.6,0.5-0.6,0.8c0,0.2,0.1,0.4,0.4,0.6
							s0.7,0.3,1.3,0.3l2.2,0.2c0.8,0.1,1.5,0.2,2,0.5c0.5,0.2,0.8,0.5,1.1,0.9c0.2,0.3,0.3,0.8,0.3,1.2
							C257.2,486.8,257,487.3,256.7,487.7z"/>
						<path d="M264,488.5c-0.6-0.3-1-0.8-1.3-1.4s-0.4-1.3-0.4-2.2v-4.7h2v4.4c0,0.9,0.2,1.6,0.6,2s1,0.7,1.8,0.7
							c0.5,0,1-0.1,1.4-0.4c0.4-0.2,0.7-0.6,0.9-1c0.2-0.4,0.3-1,0.3-1.6l0.7,0.4c-0.1,0.9-0.3,1.6-0.7,2.2
							c-0.4,0.6-0.8,1.1-1.4,1.5c-0.6,0.3-1.2,0.5-1.9,0.5C265.2,489,264.5,488.8,264,488.5z M269.3,485.7v-5.5h2v5.8l0.5,2.8h-2
							L269.3,485.7z"/>
						<path d="M278.6,480.3l0.5,3.1v5.4h-2V483l-0.5-2.7H278.6z M282.7,481.8c-0.3,0-0.5,0-0.7,0c-0.6,0-1.1,0.1-1.5,0.4
							s-0.8,0.6-1,1.1s-0.4,1.1-0.4,1.7l-0.5-0.6c0-0.8,0.2-1.6,0.5-2.2s0.7-1.2,1.2-1.5c0.5-0.4,1.1-0.6,1.9-0.6c0.2,0,0.4,0,0.6,0
							s0.4,0.1,0.6,0.1v1.7C283.2,481.9,283,481.8,282.7,481.8z"/>
						<path d="M295.9,486.9c-0.4,0.7-1,1.2-1.6,1.6s-1.4,0.6-2.1,0.6c-0.8,0-1.6-0.2-2.2-0.6s-1.2-0.9-1.5-1.6s-0.5-1.5-0.5-2.3
							c0-0.9,0.2-1.6,0.5-2.3s0.9-1.2,1.5-1.6s1.4-0.6,2.2-0.6c0.8,0,1.5,0.2,2.2,0.6s1.2,0.9,1.6,1.6s0.8,1.5,0.9,2.3
							C296.6,485.4,296.3,486.2,295.9,486.9z M290.2,486c0.2,0.4,0.6,0.8,1,1s0.9,0.4,1.4,0.4c0.8,0,1.5-0.3,2.1-0.8
							s1.1-1.2,1.4-2.1c-0.3-0.9-0.8-1.6-1.5-2.1s-1.3-0.8-2.1-0.8c-0.5,0-1,0.1-1.4,0.4c-0.4,0.2-0.7,0.6-1,1
							c-0.2,0.4-0.4,0.9-0.4,1.5C289.8,485.1,289.9,485.6,290.2,486z M295.9,485.6l0.4-1.1l-0.4-1.1l0.3-3.2h2l-0.5,4.3l0.5,4.3h-2
							L295.9,485.6z"/>
						<path d="M305.3,480.3l0.5,3.1v5.5h-2v-5.7l-0.5-2.8h2V480.3z M311.2,480.5c0.6,0.3,1,0.8,1.3,1.4s0.4,1.3,0.4,2.2v4.7h-2v-4.4
							c0-0.9-0.2-1.6-0.6-2s-1-0.7-1.8-0.7c-0.6,0-1,0.1-1.5,0.4c-0.4,0.2-0.7,0.6-1,1c-0.2,0.4-0.3,1-0.3,1.6l-0.7-0.4
							c0.1-0.9,0.3-1.6,0.7-2.2c0.4-0.6,0.9-1.1,1.4-1.5c0.6-0.3,1.2-0.5,2-0.5C310,480.1,310.7,480.2,311.2,480.5z"/>
						<path d="M327.1,487.3c-0.4,0.5-1,1-1.7,1.3s-1.5,0.5-2.3,0.5c-1,0-1.8-0.2-2.6-0.6c-0.8-0.4-1.3-0.9-1.8-1.6
							c-0.4-0.7-0.6-1.5-0.6-2.3c0-0.9,0.2-1.6,0.6-2.3c0.4-0.7,1-1.2,1.8-1.6s1.6-0.6,2.6-0.6c0.9,0,1.6,0.2,2.3,0.5
							c0.7,0.3,1.3,0.7,1.7,1.3c0.4,0.5,0.7,1.2,0.8,1.9h-2c-0.1-0.6-0.5-1.1-1-1.5s-1.2-0.5-1.9-0.5c-0.6,0-1.1,0.1-1.6,0.4
							c-0.5,0.2-0.8,0.6-1,1s-0.4,1-0.4,1.6s0.1,1.1,0.4,1.6c0.2,0.4,0.6,0.8,1,1c0.5,0.2,1,0.4,1.6,0.4c0.8,0,1.4-0.2,1.9-0.5
							s0.9-0.9,1-1.5h2C327.9,486.1,327.6,486.8,327.1,487.3z"/>
						<path d="M335.1,488.4c-0.8-0.4-1.4-0.9-1.8-1.6s-0.7-1.5-0.7-2.3c0-0.9,0.2-1.6,0.6-2.3c0.4-0.7,1-1.2,1.7-1.6
							s1.6-0.6,2.5-0.6s1.8,0.2,2.5,0.6s1.3,1,1.6,1.8c0.4,0.8,0.6,1.7,0.6,2.7h-8v-1.5h7l-1,0.6c0-0.6-0.2-1-0.4-1.4
							s-0.6-0.7-1-0.9c-0.4-0.2-0.9-0.3-1.4-0.3c-0.6,0-1.1,0.1-1.5,0.3c-0.4,0.2-0.8,0.6-1,1s-0.4,0.9-0.4,1.5s0.1,1.2,0.4,1.6
							c0.3,0.5,0.7,0.8,1.2,1.1s1.2,0.4,1.9,0.4c0.7,0,1.3-0.1,2-0.3s1.3-0.5,1.8-0.9v1.4c-0.5,0.4-1.2,0.7-1.9,0.9
							c-0.7,0.2-1.5,0.3-2.3,0.3C336.7,489,335.8,488.8,335.1,488.4z"/>
						<path d="M347.7,488.7c-0.2-0.1-0.3-0.3-0.4-0.4c-0.1-0.2-0.2-0.4-0.2-0.6s0.1-0.4,0.2-0.6s0.3-0.3,0.4-0.4
							c0.2-0.1,0.4-0.2,0.6-0.2s0.4,0.1,0.6,0.2s0.3,0.3,0.4,0.4s0.2,0.4,0.2,0.6s-0.1,0.4-0.2,0.6s-0.3,0.3-0.4,0.4
							c-0.2,0.1-0.4,0.2-0.6,0.2C348,488.9,347.8,488.9,347.7,488.7z"/>
						<path d="M363.5,487.3c-0.4,0.5-1,1-1.7,1.3s-1.5,0.5-2.3,0.5c-1,0-1.8-0.2-2.6-0.6c-0.8-0.4-1.3-0.9-1.8-1.6
							c-0.4-0.7-0.6-1.5-0.6-2.3c0-0.9,0.2-1.6,0.6-2.3c0.4-0.7,1-1.2,1.8-1.6s1.6-0.6,2.6-0.6c0.9,0,1.6,0.2,2.3,0.5
							c0.7,0.3,1.3,0.7,1.7,1.3c0.4,0.5,0.7,1.2,0.8,1.9h-2c-0.1-0.6-0.5-1.1-1-1.5s-1.2-0.5-1.9-0.5c-0.6,0-1.1,0.1-1.6,0.4
							c-0.5,0.2-0.8,0.6-1,1s-0.4,1-0.4,1.6s0.1,1.1,0.4,1.6c0.2,0.4,0.6,0.8,1,1c0.5,0.2,1,0.4,1.6,0.4c0.8,0,1.4-0.2,1.9-0.5
							s0.9-0.9,1-1.5h2C364.2,486.1,363.9,486.8,363.5,487.3z"/>
						<path d="M371.4,488.4c-0.8-0.4-1.4-0.9-1.8-1.6s-0.6-1.5-0.6-2.3c0-0.9,0.2-1.7,0.6-2.3s1-1.2,1.8-1.6s1.7-0.6,2.7-0.6
							s1.9,0.2,2.7,0.6c0.8,0.4,1.4,0.9,1.8,1.6s0.6,1.5,0.6,2.3c0,0.9-0.2,1.7-0.6,2.3s-1,1.2-1.8,1.6s-1.7,0.6-2.7,0.6
							S372.2,488.8,371.4,488.4z M375.8,487.1c0.5-0.2,0.9-0.6,1.1-1c0.3-0.4,0.4-1,0.4-1.6s-0.1-1.1-0.4-1.6
							c-0.3-0.4-0.6-0.8-1.1-1s-1-0.4-1.7-0.4s-1.2,0.1-1.7,0.4s-0.9,0.6-1.1,1c-0.3,0.4-0.4,1-0.4,1.6s0.1,1.1,0.4,1.6
							c0.3,0.4,0.6,0.8,1.1,1s1,0.4,1.7,0.4S375.3,487.3,375.8,487.1z"/>
						<path d="M386.1,480.3l0.5,3.1v5.5h-2v-5.7l-0.5-2.8h2V480.3z M392.3,481.1c0.6,0.7,0.9,1.7,0.9,3v4.7h-2v-4.4
							c0-0.9-0.2-1.6-0.6-2s-0.9-0.7-1.6-0.7c-0.5,0-0.9,0.1-1.3,0.4c-0.4,0.2-0.7,0.6-0.9,1c-0.2,0.4-0.3,1-0.3,1.6l-0.7-0.4
							c0.1-0.9,0.3-1.6,0.6-2.2c0.3-0.6,0.8-1.1,1.3-1.5c0.6-0.3,1.2-0.5,1.9-0.5C390.8,480.1,391.7,480.4,392.3,481.1z
							 M398.3,480.5c0.5,0.3,0.9,0.8,1.2,1.4s0.4,1.3,0.4,2.2v4.7h-2v-4.4c0-0.9-0.2-1.6-0.6-2c-0.4-0.5-0.9-0.7-1.6-0.7
							c-0.5,0-0.9,0.1-1.3,0.4s-0.7,0.6-0.9,1c-0.2,0.4-0.3,1-0.3,1.6l-0.7-0.4c0.1-0.9,0.3-1.6,0.6-2.2c0.3-0.6,0.8-1.1,1.3-1.5
							c0.6-0.3,1.2-0.5,1.8-0.5C397.1,480.1,397.8,480.2,398.3,480.5z"/>
					</g>
				</g>
			</g>
		</g>
	</g>
</g>
<image style="overflow:visible;" width="438" height="438" xlink:href="../Rust_programming_language_black_logo.png"  transform="matrix(0.1515 0 0 0.1515 148.6894 184.7284)">
</image>
</svg>
