<?xml version="1.0" encoding="utf-8"?>
<!-- Generator: Adobe Illustrator 27.3.1, SVG Export Plug-In . SVG Version: 6.00 Build 0)  -->
<svg version="1.1" id="Camada_1" xmlns="http://www.w3.org/2000/svg" xmlns:xlink="http://www.w3.org/1999/xlink" x="0px" y="0px"
	 viewBox="0 0 500 500" style="enable-background:new 0 0 500 500;" xml:space="preserve">
<style type="text/css">
	.st0{fill:#FFFFFF;stroke:#000000;stroke-miterlimit:10;}
	.st1{fill:#FFFFFF;stroke:#000000;stroke-width:2;stroke-miterlimit:10;}
	.st2{fill:none;stroke:#000000;stroke-miterlimit:10;}
	.st3{fill-rule:evenodd;clip-rule:evenodd;fill:#FFFFFF;}
	.st4{fill:#FFFFFF;}
</style>
<g>
	<g>
		<g>
			<g>
				<g>
					<g>
						<path class="st0" d="M246,409.5L246,409.5c-82.6,0-149.5-66.9-149.5-149.5V94.5h299V260C395.5,342.6,328.6,409.5,246,409.5z"
							/>
						<path class="st1" d="M254.1,401.8c10.2-0.5,57.7-3.8,95.9-43.4c37.8-39.2,39.8-86.1,40-96.5V257H253.6
							C253.8,305.3,254,353.5,254.1,401.8z"/>
						<g>
							<line class="st2" x1="246.5" y1="96" x2="246.5" y2="411"/>
							<line class="st2" x1="394" y1="250.5" x2="97" y2="250.5"/>
						</g>
						<g>
							<defs>
								<path id="SVGID_1_" d="M239.9,401.8c-10.2-0.5-57.7-3.8-95.9-43.4c-37.8-39.2-39.8-86.1-40-96.5V257h136.4
									C240.2,305.3,240,353.5,239.9,401.8z"/>
							</defs>
							<use xlink:href="#SVGID_1_"  style="overflow:visible;"/>
							<clipPath id="SVGID_00000057129133487273221500000015815724707992981914_">
								<use xlink:href="#SVGID_1_"  style="overflow:visible;"/>
							</clipPath>
							<use xlink:href="#SVGID_1_"  style="overflow:visible;fill:none;stroke:#000000;stroke-width:2;stroke-miterlimit:10;"/>
						</g>
						<g>
							<g>
								<defs>
									<rect id="SVGID_00000066489098613001079970000017251502483722725807_" x="253" y="103" width="136" height="142"/>
								</defs>
								<use xlink:href="#SVGID_00000066489098613001079970000017251502483722725807_"  style="overflow:visible;"/>
								<clipPath id="SVGID_00000079485935989404844790000003187248338894727318_">
									<use xlink:href="#SVGID_00000066489098613001079970000017251502483722725807_"  style="overflow:visible;"/>
								</clipPath>
								
									<use xlink:href="#SVGID_00000066489098613001079970000017251502483722725807_"  style="overflow:visible;fill:none;stroke:#000000;stroke-width:2;stroke-miterlimit:10;"/>
							</g>
						</g>
						<g>
							<g>
								<ellipse cx="319" cy="289" rx="12" ry="7"/>
								<ellipse cx="319" cy="341" rx="12" ry="7"/>
								<ellipse transform="matrix(0.8677 -0.497 0.497 0.8677 -123.8069 190.7471)" cx="296.5" cy="328" rx="7" ry="12"/>
								<ellipse transform="matrix(0.497 -0.8677 0.8677 0.497 -112.8505 461.3113)" cx="341.5" cy="328" rx="12" ry="7"/>
								<ellipse transform="matrix(0.497 -0.8677 0.8677 0.497 -112.9234 409.1855)" cx="296.5" cy="302" rx="12" ry="7"/>
								<ellipse transform="matrix(0.8677 -0.497 0.497 0.8677 -104.9327 209.6742)" cx="341.5" cy="302" rx="7" ry="12"/>
							</g>
						</g>
						<g>
							<rect x="104" y="103" class="st1" width="136" height="142"/>
						</g>
					</g>
					<g>
						<path id="inc_00000016769586257809475600000011969777106536797585_" class="st3" d="M355.7,185.9c-2.1,0.8-3.3,3-2.7,5
							c0.7,2,3,3,5.1,2.2c2.1-0.8,3.3-3,2.7-5C360.2,186.2,357.9,185.2,355.7,185.9L355.7,185.9z M286.2,165c0.5,0,0.8,0.3,0.8,0.8
							v26.3c0,0.5-0.4,0.8-0.8,0.8h-5.3c-0.5,0-0.8-0.4-0.8-0.8v-26.3c0-0.5,0.4-0.8,0.8-0.8H286.2L286.2,165z M309.1,165
							c5.8,0,7.9,4.3,7.9,10.1v18c0,0.5-0.4,0.8-0.8,0.8h-5.3c-0.5,0-0.8-0.4-0.8-0.8v-18.6c0-1.9-1.3-2.6-2.9-2.6h-0.6
							c-2.3,0-3.9,1-4.5,2v18.5c0,0-1,0.8-1.5,0.5H295c-0.6,0.4-0.8,0.1-1-0.5v-26.2c0.1-0.6,0.4-0.8,1-1.3h5.5
							c0.6,0.5,1.5,1.3,1.5,1.3v2.3c0.8-1.4,2.8-3.6,6.8-3.6H309.1L309.1,165z M330.2,154c0.5,0,0.8,0.3,0.8,0.8v19.2l8-8.4
							c0.3-0.4,0.8-0.7,1.3-0.7h5.8c0.7,0,1.4,0.8,0.4,1.9l-8.3,9l9.7,15.6c0.3,0.6,0.3,1.5-0.7,1.5h-5.6c-0.7,0-1.4-0.2-1.8-1
							l-6.6-11.3l-2.1,2.2v9.2c0,0.5-0.4,0.8-0.8,0.8h-5.3c-0.5,0-0.8-0.4-0.8-0.8v-37.3c0-0.5,0.4-0.8,0.8-0.8H330.2L330.2,154z
							 M282.2,155.7c-2.1,0.6-3.4,2.7-2.8,4.7c0.5,2,2.7,3.1,4.8,2.4c2.1-0.6,3.4-2.7,2.8-4.7C286.4,156.1,284.3,155,282.2,155.7
							L282.2,155.7z"/>
						<path class="st3" d="M355,179l-1.1,0c-0.5,0-0.8-0.4-0.8-0.8v-23.3c0-0.5,0.4-0.8,0.8-0.8h5.3c0.5,0,0.8,0.4,0.8,0.8l0,0.8
							c-2.1,0.5-3.7,2.7-3.8,5.5c-0.1,2.2,0.8,4.2,2.2,5.3c-1,0.7-1.8,2-2,3.5c-0.2,1.6,0.3,3.1,1.3,4.2c-1,0.4-1.8,1.3-2.3,2.5
							C355,177.4,354.8,178.2,355,179L355,179z"/>
						<path class="st3" d="M356.8,177.6c-0.4,0.9-0.1,1.9,0.7,2.2c0.8,0.3,1.8-0.3,2.2-1.2c0.4-0.9,0.1-1.9-0.7-2.2
							C358.2,176.1,357.2,176.6,356.8,177.6z M358.3,170.6c-0.3,1.5,0.5,2.8,1.7,3.1c1.2,0.2,2.5-0.8,2.7-2.2s-0.5-2.8-1.7-3.1
							C359.8,168.2,358.6,169.2,358.3,170.6z M358,162c-0.1,2,1.2,3.7,2.9,3.8c1.7,0.1,3.1-1.4,3.2-3.4c0.1-2-1.2-3.7-2.9-3.8
							C359.6,158.5,358.1,160,358,162L358,162z"/>
					</g>
				</g>
				<path class="st4" d="M196,292.7L176.7,304h-0.3l-14.4-8.2l10.6-6.1l-5.3-3.3c-4.6,2.6-5.7,3.1-10.3,5.7v6.3
					c4.8,2.8,9.6,5.6,14.4,8.5l-14.4,8.2v6.1l14.2,8.2l-14.4,8.5l0.2,5.9c6.5-3.8,13.1-7.5,19.6-11.3c4.7,2.7,9.5,5.5,14.2,8.2
					l-10.4,6.1l5.3,3.1c4.8-2.9,5.8-3.5,10.6-6.3c-0.1-1.9-0.2-3.8-0.2-5.7l-13.9-8.5l13.9-8.2v-5.9l-14.9-8.5l14.9-8.2V292.7z
					 M190.6,318.1l-14.6,8.5l-14.1-8.5l14.6-8.2L190.6,318.1z"/>
			</g>
		</g>
	</g>
</g>
<image style="overflow:visible;" width="438" height="438" xlink:href="../Rust_programming_language_black_logo.png"  transform="matrix(0.153 0 0 0.153 141 142)">
</image>
</svg>
