<?xml version="1.0" encoding="utf-8"?>
<!-- Generator: Adobe Illustrator 27.3.1, SVG Export Plug-In . SVG Version: 6.00 Build 0)  -->
<svg version="1.1" id="Camada_1" xmlns="http://www.w3.org/2000/svg" xmlns:xlink="http://www.w3.org/1999/xlink" x="0px" y="0px"
	 viewBox="0 0 469 246" style="enable-background:new 0 0 469 246;" xml:space="preserve">
<style type="text/css">
	.st0{fill:#FFFFFF;}
	.st1{fill:#FFFFFF;stroke:#000000;stroke-miterlimit:10;}
	.st2{fill:#FFFFFF;stroke:#000000;stroke-width:2;stroke-miterlimit:10;}
	.st3{fill:none;stroke:#000000;stroke-miterlimit:10;}
	.st4{fill:none;stroke:#000000;stroke-width:2;stroke-miterlimit:10;}
	.st5{fill-rule:evenodd;clip-rule:evenodd;fill:#FFFFFF;}
</style>
<g>
	<g>
		<g>
			<g>
				<g>
					<g>
						<g>
							<path class="st0" d="M257.4,148.4c-0.4,0.6-1,1.1-1.6,1.5s-1.3,0.5-2.1,0.5s-1.5-0.2-2.1-0.5c-0.6-0.4-1.1-0.9-1.5-1.5
								s-0.5-1.4-0.5-2.2s0.2-1.6,0.5-2.2c0.4-0.6,0.8-1.1,1.5-1.5c0.6-0.4,1.3-0.5,2.1-0.5c0.7,0,1.4,0.2,2.1,0.5
								c0.6,0.4,1.2,0.9,1.6,1.5s0.8,1.4,1,2.2C258.2,147,257.9,147.7,257.4,148.4z M251.4,147.8c0.3,0.5,0.6,0.8,1.1,1.1
								c0.4,0.3,1,0.4,1.5,0.4c0.8,0,1.6-0.3,2.3-0.9c0.7-0.6,1.2-1.3,1.6-2.3c-0.4-1-0.9-1.7-1.6-2.3c-0.7-0.6-1.4-0.9-2.3-0.9
								c-0.6,0-1.1,0.1-1.5,0.4c-0.4,0.3-0.8,0.6-1.1,1.1s-0.4,1-0.4,1.6C251,146.7,251.2,147.3,251.4,147.8z M257.6,147.1l0.4-1
								l-0.4-1l0.3-3.1h1.4l-0.4,4.1l0.4,4.1h-1.4L257.6,147.1z"/>
							<path class="st0" d="M271.9,149.2c-0.3,0.4-0.8,0.7-1.4,0.9s-1.3,0.3-2.2,0.3c-0.9,0-1.6-0.1-2.3-0.4c-0.7-0.2-1.2-0.6-1.6-1
								s-0.6-1-0.6-1.5h1.3c0.1,0.4,0.2,0.7,0.5,1s0.6,0.5,1.1,0.7s1,0.2,1.5,0.2c0.6,0,1-0.1,1.4-0.2s0.7-0.3,0.9-0.5
								s0.3-0.5,0.3-0.8c0-0.2-0.1-0.4-0.2-0.6c-0.1-0.1-0.4-0.3-0.7-0.3c-0.3-0.1-0.8-0.2-1.3-0.2l-1.6-0.2
								c-1.1-0.1-1.9-0.4-2.4-0.7c-0.5-0.4-0.7-0.9-0.7-1.5c0-0.8,0.3-1.4,1-1.8c0.7-0.4,1.6-0.6,2.8-0.6c0.8,0,1.5,0.1,2.2,0.4
								c0.6,0.2,1.1,0.6,1.5,1s0.6,0.9,0.6,1.4h-1.3c-0.1-0.5-0.4-0.9-0.9-1.2s-1.2-0.5-2.1-0.5c-0.8,0-1.4,0.1-1.8,0.3
								s-0.6,0.5-0.6,1c0,0.3,0.1,0.6,0.4,0.8s0.8,0.3,1.5,0.4l1.8,0.2c0.8,0.1,1.4,0.2,1.9,0.4s0.8,0.4,1,0.7s0.3,0.7,0.3,1.1
								C272.3,148.3,272.2,148.8,271.9,149.2z"/>
							<path class="st0" d="M284.6,149.2c-0.3,0.4-0.8,0.7-1.4,0.9s-1.3,0.3-2.2,0.3c-0.9,0-1.6-0.1-2.3-0.4c-0.7-0.2-1.2-0.6-1.6-1
								s-0.6-1-0.6-1.5h1.3c0.1,0.4,0.2,0.7,0.5,1s0.6,0.5,1.1,0.7s1,0.2,1.5,0.2c0.6,0,1-0.1,1.4-0.2s0.7-0.3,0.9-0.5
								s0.3-0.5,0.3-0.8c0-0.2-0.1-0.4-0.2-0.6c-0.1-0.1-0.4-0.3-0.7-0.3c-0.3-0.1-0.8-0.2-1.3-0.2l-1.6-0.2
								c-1.1-0.1-1.9-0.4-2.4-0.7c-0.5-0.4-0.7-0.9-0.7-1.5c0-0.8,0.3-1.4,1-1.8c0.7-0.4,1.6-0.6,2.8-0.6c0.8,0,1.5,0.1,2.2,0.4
								c0.6,0.2,1.1,0.6,1.5,1s0.6,0.9,0.6,1.4h-1.3c-0.1-0.5-0.4-0.9-0.9-1.2s-1.2-0.5-2.1-0.5c-0.8,0-1.4,0.1-1.8,0.3
								s-0.6,0.5-0.6,1c0,0.3,0.1,0.6,0.4,0.8s0.8,0.3,1.5,0.4l1.8,0.2c0.8,0.1,1.4,0.2,1.9,0.4s0.8,0.4,1,0.7s0.3,0.7,0.3,1.1
								C285.1,148.3,285,148.8,284.6,149.2z"/>
							<path class="st0" d="M291.4,149.9c-0.5-0.3-0.9-0.7-1.2-1.3c-0.3-0.6-0.4-1.3-0.4-2.1V142h1.3v4.3c0,1,0.2,1.7,0.7,2.2
								c0.4,0.5,1.1,0.8,1.9,0.8c0.6,0,1.1-0.1,1.5-0.4c0.4-0.3,0.8-0.6,1-1.1s0.4-1,0.4-1.7l0.5,0.3c-0.1,0.8-0.3,1.5-0.6,2.1
								s-0.8,1.1-1.3,1.4c-0.6,0.3-1.2,0.5-1.9,0.5S292,150.2,291.4,149.9z M296.6,147.4V142h1.3v5.6l0.5,2.6h-1.3L296.6,147.4z"/>
							<path class="st0" d="M304.3,142.1l0.5,2.8v5.4h-1.3v-5.6l-0.5-2.5L304.3,142.1L304.3,142.1z M308.5,143.1c-0.2,0-0.5,0-0.7,0
								c-0.6,0-1.1,0.1-1.5,0.4c-0.5,0.3-0.8,0.6-1.1,1.1c-0.3,0.5-0.4,1.1-0.4,1.7l-0.4-0.5c0-0.8,0.2-1.4,0.5-2s0.7-1.1,1.2-1.4
								s1.1-0.5,1.8-0.5c0.2,0,0.4,0,0.6,0s0.4,0.1,0.5,0.1v1.2C308.9,143.2,308.7,143.1,308.5,143.1z"/>
							<path class="st0" d="M320.8,148.4c-0.4,0.6-1,1.1-1.6,1.5s-1.3,0.5-2.1,0.5c-0.8,0-1.5-0.2-2.1-0.5c-0.6-0.4-1.1-0.9-1.5-1.5
								s-0.5-1.4-0.5-2.2s0.2-1.6,0.5-2.2c0.4-0.6,0.8-1.1,1.5-1.5c0.6-0.4,1.3-0.5,2.1-0.5c0.7,0,1.4,0.2,2.1,0.5
								c0.6,0.4,1.2,0.9,1.6,1.5s0.8,1.4,1,2.2C321.6,147,321.3,147.7,320.8,148.4z M314.8,147.8c0.3,0.5,0.6,0.8,1.1,1.1
								c0.4,0.3,1,0.4,1.5,0.4c0.8,0,1.6-0.3,2.3-0.9c0.7-0.6,1.2-1.3,1.6-2.3c-0.4-1-0.9-1.7-1.6-2.3s-1.4-0.9-2.3-0.9
								c-0.6,0-1.1,0.1-1.5,0.4c-0.4,0.3-0.8,0.6-1.1,1.1c-0.3,0.5-0.4,1-0.4,1.6C314.4,146.7,314.6,147.3,314.8,147.8z M321,147.1
								l0.4-1l-0.4-1l0.3-3.1h1.4l-0.4,4.1l0.4,4.1h-1.4L321,147.1z"/>
							<path class="st0" d="M328.7,142.1l0.5,2.8v5.4h-1.3v-5.6l-0.5-2.6L328.7,142.1L328.7,142.1z M334.5,142.3
								c0.5,0.3,0.9,0.7,1.2,1.3c0.3,0.6,0.4,1.3,0.4,2.1v4.5h-1.3V146c0-1-0.2-1.7-0.7-2.2c-0.4-0.5-1.1-0.8-2-0.8
								c-0.6,0-1.1,0.1-1.6,0.4s-0.8,0.6-1,1.1s-0.4,1-0.4,1.7l-0.5-0.4c0.1-0.8,0.3-1.5,0.6-2.1c0.3-0.6,0.8-1.1,1.4-1.4
								c0.6-0.3,1.2-0.5,1.9-0.5C333.3,141.9,334,142,334.5,142.3z"/>
							<path class="st0" d="M349.2,148.8c-0.4,0.5-0.9,0.9-1.6,1.2s-1.4,0.4-2.1,0.4c-0.9,0-1.7-0.2-2.4-0.5
								c-0.7-0.4-1.2-0.9-1.6-1.5s-0.6-1.4-0.6-2.2s0.2-1.6,0.6-2.2c0.4-0.6,0.9-1.1,1.6-1.5s1.5-0.5,2.4-0.5c0.8,0,1.5,0.1,2.1,0.4
								c0.7,0.3,1.2,0.7,1.6,1.2s0.7,1.1,0.8,1.7h-1.4c-0.1-0.7-0.5-1.2-1.1-1.6c-0.6-0.4-1.3-0.6-2.1-0.6c-0.6,0-1.2,0.1-1.7,0.4
								s-0.9,0.6-1.1,1.1c-0.3,0.5-0.4,1-0.4,1.7c0,0.6,0.1,1.2,0.4,1.7s0.6,0.8,1.1,1.1s1.1,0.4,1.7,0.4c0.8,0,1.5-0.2,2.1-0.6
								c0.6-0.4,0.9-0.9,1.1-1.6h1.4C349.9,147.8,349.7,148.3,349.2,148.8z"/>
							<path class="st0" d="M356.6,149.8c-0.7-0.4-1.3-0.9-1.7-1.5c-0.4-0.6-0.6-1.4-0.6-2.2s0.2-1.6,0.6-2.2
								c0.4-0.6,0.9-1.1,1.6-1.5s1.5-0.5,2.4-0.5s1.6,0.2,2.3,0.6c0.7,0.4,1.2,0.9,1.5,1.6c0.4,0.7,0.5,1.5,0.5,2.4h-7.9v-1.1h7.3
								l-0.8,0.5c0-0.6-0.2-1.1-0.4-1.6s-0.6-0.8-1.1-1c-0.4-0.2-1-0.4-1.6-0.4s-1.2,0.1-1.7,0.4c-0.5,0.3-0.8,0.6-1.1,1.1
								c-0.3,0.5-0.4,1-0.4,1.6c0,0.7,0.1,1.2,0.4,1.7s0.7,0.9,1.3,1.1c0.5,0.3,1.2,0.4,1.9,0.4c0.7,0,1.3-0.1,2-0.3
								s1.2-0.5,1.7-0.9v1c-0.5,0.4-1.1,0.7-1.8,1c-0.7,0.2-1.4,0.4-2.1,0.4C358.1,150.4,357.3,150.2,356.6,149.8z"/>
							<path class="st0" d="M376.5,139.1v11.1h-1.3v-11.1H376.5z"/>
							<path class="st0" d="M383.7,149.8c-0.7-0.4-1.3-0.9-1.7-1.5c-0.4-0.6-0.6-1.4-0.6-2.2s0.2-1.6,0.6-2.2s0.9-1.1,1.6-1.5
								s1.5-0.5,2.4-0.5s1.6,0.2,2.3,0.6s1.2,0.9,1.5,1.6c0.4,0.7,0.5,1.5,0.5,2.4h-7.9v-1.1h7.3l-0.8,0.5c0-0.6-0.2-1.1-0.4-1.6
								c-0.3-0.4-0.6-0.8-1.1-1c-0.4-0.2-1-0.4-1.6-0.4s-1.2,0.1-1.7,0.4c-0.5,0.3-0.8,0.6-1.1,1.1c-0.3,0.5-0.4,1-0.4,1.6
								c0,0.7,0.1,1.2,0.4,1.7s0.7,0.9,1.3,1.1s1.2,0.4,1.9,0.4c0.7,0,1.3-0.1,2-0.3c0.6-0.2,1.2-0.5,1.7-0.9v1
								c-0.5,0.4-1.1,0.7-1.8,1c-0.7,0.2-1.4,0.4-2.1,0.4C385.2,150.4,384.4,150.2,383.7,149.8z"/>
							<path class="st0" d="M396.6,149.2c-0.6-0.3-1.1-0.8-1.4-1.4c-0.3-0.6-0.5-1.3-0.5-2c0-0.8,0.2-1.4,0.5-2s0.8-1.1,1.4-1.4
								c0.6-0.3,1.3-0.5,2-0.5c0.9,0,1.6,0.2,2.4,0.6c0.7,0.4,1.3,0.9,1.7,1.6c0.4,0.6,0.6,1.2,0.6,1.7s-0.2,1.1-0.6,1.7
								c-0.4,0.6-1,1.1-1.7,1.5s-1.5,0.6-2.4,0.6C397.8,149.7,397.1,149.5,396.6,149.2z M402.7,146.8l0.1-0.2v-1.3l-0.1-0.3v-2.8
								h1.3v6c0,1-0.2,1.9-0.6,2.6c-0.4,0.7-1,1.2-1.7,1.6c-0.7,0.4-1.6,0.5-2.5,0.5c-0.7,0-1.4-0.1-2-0.3s-1.2-0.5-1.7-0.9v-1.2
								c0.5,0.4,1.1,0.8,1.7,1s1.2,0.3,1.9,0.3c1.2,0,2.1-0.3,2.7-0.9c0.6-0.6,0.9-1.5,0.9-2.5L402.7,146.8L402.7,146.8z M401,147.9
								c0.6-0.5,1.2-1.2,1.7-2.2c-0.5-1-1.1-1.7-1.7-2.2s-1.3-0.7-2.1-0.7c-0.6,0-1.1,0.1-1.6,0.4c-0.4,0.2-0.8,0.6-1,1
								s-0.3,0.9-0.3,1.5s0.1,1.1,0.3,1.5c0.2,0.4,0.6,0.8,1,1s1,0.4,1.6,0.4C399.7,148.6,400.4,148.4,401,147.9z"/>
							<path class="st0" d="M409.3,140.6c-0.2-0.2-0.3-0.4-0.3-0.6c0-0.3,0.1-0.5,0.3-0.6c0.2-0.2,0.4-0.3,0.7-0.3
								c0.3,0,0.5,0.1,0.7,0.3s0.3,0.4,0.3,0.6c0,0.3-0.1,0.5-0.3,0.6c-0.2,0.2-0.4,0.3-0.7,0.3
								C409.7,140.8,409.4,140.7,409.3,140.6z M410,142.1l0.7-0.1v8.2h-1.3V142L410,142.1z"/>
							<path class="st0" d="M417.8,149.8c-0.7-0.4-1.3-0.9-1.7-1.5s-0.6-1.4-0.6-2.2s0.2-1.6,0.6-2.2s1-1.1,1.7-1.5s1.6-0.5,2.5-0.5
								s1.8,0.2,2.5,0.5c0.7,0.4,1.3,0.9,1.7,1.5c0.4,0.6,0.6,1.4,0.6,2.2s-0.2,1.6-0.6,2.2c-0.4,0.6-1,1.1-1.7,1.5
								s-1.6,0.5-2.5,0.5C419.4,150.4,418.5,150.2,417.8,149.8z M422.2,148.9c0.5-0.3,0.9-0.6,1.2-1.1s0.4-1,0.4-1.7
								s-0.1-1.2-0.4-1.7s-0.7-0.8-1.2-1.1s-1.1-0.4-1.8-0.4c-0.7,0-1.3,0.1-1.8,0.4s-0.9,0.6-1.2,1.1c-0.3,0.5-0.4,1-0.4,1.7
								s0.1,1.2,0.4,1.7s0.7,0.8,1.2,1.1s1.1,0.4,1.8,0.4C421,149.3,421.6,149.2,422.2,148.9z"/>
							<path class="st0" d="M430.9,142.1l0.5,2.8v5.4h-1.3v-5.6l-0.5-2.6L430.9,142.1L430.9,142.1z M436.7,142.3
								c0.5,0.3,0.9,0.7,1.2,1.3c0.3,0.6,0.4,1.3,0.4,2.1v4.5H437V146c0-1-0.2-1.7-0.7-2.2c-0.4-0.5-1.1-0.8-2-0.8
								c-0.6,0-1.1,0.1-1.6,0.4s-0.8,0.6-1,1.1s-0.4,1-0.4,1.7l-0.5-0.4c0.1-0.8,0.3-1.5,0.6-2.1c0.3-0.6,0.8-1.1,1.4-1.4
								c0.6-0.3,1.2-0.5,1.9-0.5C435.5,141.9,436.2,142,436.7,142.3z"/>
						</g>
					</g>
				</g>
				<g>
					<path class="st0" d="M265.4,91.6c-3,0-5.8,0.4-7,0.7c-1.7,0.5-2.1,1.2-2.4,2.7l-6.7,30.9c-0.1,0.6-0.2,1.2-0.2,1.7
						c0,1.5,1,2.5,2.6,2.5c1.8,0,2.5-1.2,2.9-3l1.9-8.8c1.3,0.2,3.1,0.3,5.5,0.3c10.9,0,17.7-5.9,17.7-14.8
						C279.8,96.1,274.4,91.6,265.4,91.6z M261.8,113.7c-1.7,0-3-0.1-4.2-0.2l3.5-16.4c1.1-0.2,2.7-0.4,4.4-0.4
						c5.8,0,8.8,2.7,8.8,7.3C274.3,109.7,270.1,113.7,261.8,113.7L261.8,113.7z"/>
					<path class="st0" d="M437.4,120c-0.9,0-1.5,0.5-2.6,1.7c-2,2-3.2,3.1-4.7,3.1c-1.4,0-2.1-1.1-2.1-2.9c0-1,0.2-2.2,0.5-3.5
						l2-9.2h5.9c1.8,0,3-1.1,3-3c0-1.1-0.7-1.8-2.3-1.8h-5.5l1-4.3c0.1-0.6,0.2-1.2,0.2-1.7c0-1.5-1-2.5-2.6-2.5
						c-1.7,0-2.5,1.2-2.9,3l-1.2,5.6h-2.5c-1.9,0-3,1.1-3,3c0,1.1,0.7,1.8,2.3,1.8h2.2l-2,9.1c-0.2,1-0.5,2.6-0.5,4.3
						c0,4.3,2.2,7.4,7,7.4c2.7,0,5.2-1.4,7-3c1.8-1.6,3.1-3.5,3.1-4.8C439.5,121,438.6,120,437.4,120z"/>
					<path class="st0" d="M316,94.7c0-1.5-1.1-2.5-2.7-2.5c-1.7,0-2.5,1.2-2.9,3l-6.6,30.7c-0.2,0.6-0.3,1.2-0.3,1.7
						c0,1.5,1.1,2.5,2.6,2.5c1.8,0,2.6-1.2,3-3l6.6-30.7C315.8,95.8,316,95.2,316,94.7z"/>
					<path class="st0" d="M410.2,103.9c-8.4,0-14.2,8.4-14.2,16.4c0,0.1,0,0.3,0,0.4c-1.3,2-3,4.1-4.2,4.1c-0.8,0-1.2-0.8-1.2-2
						c0-1.5,0.4-4,0.9-6.1l4.4-20.3c0.1-0.6,0.2-1.2,0.2-1.7c0-1.5-1-2.5-2.6-2.5c-1.8,0-2.5,1.2-2.9,3l-2.4,11
						c-1.3-1.3-3.1-2.2-5.9-2.2c-5.6,0-11.3,4.3-13.5,10.9c-2.4,6.3-4.6,10-6.3,10c-0.6,0-1-0.5-1-1.4c0-2.6,1.5-9.1,2.1-12.2
						c0.2-1.2,0.3-1.6,0.3-2.3c0-2.3-3.9-5.1-8.9-5.1c-5.8,0-11.1,3.7-13.7,9.1c-3.9,6.9-7.5,11.9-9.3,11.9c-0.8,0-1.1-1-1.3-2
						l-1.3-7.3l8.1-6.6c0.7-0.6,1.7-1.5,1.7-2.7c0-1.4-1-2.4-2.4-2.4c-1.1,0-2,0.6-2.9,1.4l-12.1,10l4.1-18.9
						c0.1-0.6,0.3-1.2,0.3-1.7c0-1.5-1.1-2.5-2.7-2.5c-1.7,0-2.5,1.2-2.9,3l-6.6,30.7c-0.2,0.6-0.3,1.2-0.3,1.7
						c0,1.5,1.1,2.5,2.6,2.5c1.8,0,2.6-1.2,3-3l0.8-4l5-4l1.2,6.1c0.5,2.4,1.7,4.8,5,4.8s5.8-3,8.4-7c0.8,4.2,3.8,7,7.9,7
						c4.2,0,7-2.5,8.9-5.8v0.1c0,3.4,1.7,5.7,4.8,5.7c2.8,0,5.1-1.7,7.1-5.2c1.2,3.1,3.8,5.2,7.4,5.2c4.3,0,7.3-2.6,9.3-6.2v0.3
						c0,3.8,1.9,5.9,5,5.9c2.7,0,5.1-1.6,7.1-4.2c1.5,2.6,4.2,4.2,7.9,4.2c8.4,0,14.2-8.4,14.2-16.4
						C419.5,108,416,103.9,410.2,103.9z M357.6,114.6c-1.5,6.6-4.8,10.3-8.5,10.3c-2.5,0-3.9-1.9-3.9-4.8c0-5.6,4.1-11.6,9.5-11.6
						c1.6,0,2.9,0.5,4,1.2L357.6,114.6z M387,111.8c-1.7,7.8-5.5,13.1-9.8,13.1c-2.3,0-3.7-1.8-3.7-4.8c0-5.6,3.9-11.5,9.1-11.5
						c2,0,3.5,0.7,4.6,1.6L387,111.8z M405.9,125c-3.1,0-4.3-2.2-4.3-5c0-5.1,3.5-11,8-11c3.1,0,4.3,2.2,4.3,5
						C413.9,119.1,410.3,125,405.9,125z"/>
					<path class="st0" d="M292.9,103.9c-8.4,0-14.2,8.4-14.2,16.4c0,5.7,3.4,9.8,9.3,9.8c8.4,0,14.2-8.4,14.2-16.4
						C302.2,108,298.8,103.9,292.9,103.9z M288.7,125c-3.1,0-4.3-2.2-4.3-5c0-5.1,3.5-11,8-11c3.1,0,4.3,2.2,4.3,5
						C296.6,119.1,293.1,125,288.7,125z"/>
				</g>
			</g>
		</g>
		<g>
			<g>
				<g>
					<g>
						<path class="st1" d="M117.4,223.6L117.4,223.6c-53,0-96.1-43-96.1-96.1v-106h192.1v106C213.4,180.6,170.4,223.6,117.4,223.6z"
							/>
						<path class="st2" d="M122.6,218.1c6.6-0.3,37.1-2.5,61.6-27.9c24.3-25.1,25.5-55.3,25.7-61.9v-3.1h-87.6
							C122.4,156.2,122.5,187.1,122.6,218.1z"/>
						<g>
							<line class="st3" x1="117.9" y1="22.3" x2="117.9" y2="224.4"/>
							<line class="st3" x1="212.8" y1="121.6" x2="22.1" y2="121.6"/>
						</g>
						<g>
							<g>
								<path id="SVGID_1_" d="M113.4,218.1c-6.6-0.3-37.1-2.5-61.6-27.9c-24.3-25.1-25.5-55.3-25.7-61.9v-3.1h87.6
									C113.7,156.2,113.5,187.1,113.4,218.1z"/>
							</g>
							<g>
								<path id="SVGID_00000181057048622101790140000006109679198146181002_" class="st4" d="M113.4,218.1
									c-6.6-0.3-37.1-2.5-61.6-27.9c-24.3-25.1-25.5-55.3-25.7-61.9v-3.1h87.6C113.7,156.2,113.5,187.1,113.4,218.1z"/>
							</g>
						</g>
						<g>
							<g>
								<g>
									<rect id="SVGID_00000123408178248807197670000000511366254399444640_" x="122.3" y="26.6" width="87.6" height="91.1"/>
								</g>
								<g>
									
										<rect id="SVGID_00000054982330047045060570000017947528062423846836_" x="122.3" y="26.6" class="st4" width="87.6" height="91.1"/>
								</g>
							</g>
						</g>
						<g>
							<g>
								<ellipse cx="164.5" cy="146.2" rx="7.6" ry="4.4"/>
								<ellipse cx="164.5" cy="179.5" rx="7.6" ry="4.4"/>
								<ellipse transform="matrix(0.866 -0.5 0.5 0.866 -65.5177 97.9343)" cx="150" cy="171.2" rx="4.4" ry="7.6"/>
								<ellipse transform="matrix(0.5 -0.866 0.866 0.5 -58.8326 240.4786)" cx="178.8" cy="171.2" rx="7.6" ry="4.4"/>
								<ellipse transform="matrix(0.5 -0.866 0.866 0.5 -58.8679 207.2519)" cx="150.1" cy="154.6" rx="7.6" ry="4.4"/>
								<ellipse transform="matrix(0.866 -0.5 0.5 0.866 -53.3139 110.1676)" cx="178.9" cy="154.6" rx="4.4" ry="7.6"/>
							</g>
						</g>
						<g>
							<rect x="26.2" y="26.6" class="st2" width="87.6" height="91.1"/>
						</g>
					</g>
					<g>
						<path id="inc_00000016769586257809475600000011969777106536797585_" class="st5" d="M188.1,79.9c-1.4,0.5-2.1,1.9-1.7,3.2
							c0.4,1.3,1.9,1.9,3.3,1.4c1.4-0.5,2.1-1.9,1.7-3.2C190.9,80,189.5,79.4,188.1,79.9L188.1,79.9z M143.3,66.7
							c0.4,0,0.5,0.2,0.5,0.5V84c0,0.4-0.2,0.5-0.5,0.5h-3.5c-0.4,0-0.5-0.2-0.5-0.5V67.3c0-0.4,0.2-0.5,0.5-0.5L143.3,66.7
							L143.3,66.7z M157.9,66.6c3.9,0,5.3,2.6,5.3,6.3v11.2c0,0.4-0.2,0.5-0.5,0.5h-3.5c-0.4,0-0.5-0.2-0.5-0.5V72.4
							c0-1.2-0.9-1.6-1.9-1.6h-0.4c-1.5,0-2.6,0.6-3,1.3v12.1c0,0.4-0.2,0.5-0.5,0.5h-3.5c-0.4,0-0.5-0.2-0.5-0.5V67.3
							c0-0.4,0.2-0.5,0.5-0.5h3.5c0.4,0,0.5,0.2,0.5,0.5v1.6C153.9,68,155.3,66.6,157.9,66.6L157.9,66.6L157.9,66.6z M171.6,59.6
							c0.4,0,0.5,0.2,0.5,0.5v12.4l5.1-5.4c0.2-0.3,0.5-0.4,0.8-0.4h3.7c0.5,0,0.9,0.5,0.3,1.2l-5.3,5.7l6.2,10c0.2,0.4,0.2,1-0.4,1
							H179c-0.5,0-0.9-0.1-1.2-0.6l-4.4-7.2l-1.4,1.4v5.9c0,0.4-0.2,0.5-0.5,0.5H168c-0.4,0-0.5-0.2-0.5-0.5v-24
							c0-0.4,0.2-0.5,0.5-0.5H171.6L171.6,59.6z M140.9,60.4c-1.3,0.4-2.2,1.8-1.8,3c0.3,1.3,1.7,2,3.1,1.6c1.3-0.4,2.2-1.8,1.8-3
							C143.6,60.7,142.2,60,140.9,60.4L140.9,60.4z"/>
						<path class="st5" d="M187.7,75.7h-0.8c-0.4,0-0.5-0.2-0.5-0.5v-15c0-0.4,0.2-0.5,0.5-0.5h3.7c0.4,0,0.5,0.2,0.5,0.5v0.5
							c-1.4,0.3-2.5,1.8-2.6,3.5c-0.1,1.4,0.5,2.7,1.5,3.4c-0.7,0.5-1.2,1.3-1.3,2.2c-0.1,1,0.2,2,0.9,2.7c-0.6,0.3-1.2,0.9-1.6,1.6
							C187.7,74.7,187.6,75.2,187.7,75.7L187.7,75.7z"/>
						<path class="st5" d="M188.8,74.5c-0.3,0.6-0.1,1.2,0.5,1.4c0.5,0.2,1.2-0.2,1.4-0.8c0.3-0.6,0.1-1.2-0.5-1.4
							C189.7,73.5,189,73.9,188.8,74.5z M189.7,70c-0.2,0.9,0.3,1.8,1.1,2c0.8,0.1,1.6-0.5,1.8-1.4s-0.3-1.8-1.1-2
							S189.9,69.1,189.7,70z M189.5,64.5c-0.1,1.3,0.8,2.4,1.8,2.5c1.1,0.1,2-0.9,2.1-2.2c0.1-1.3-0.8-2.4-1.8-2.5
							C190.5,62.2,189.6,63.2,189.5,64.5L189.5,64.5z"/>
					</g>
				</g>
				<path class="st0" d="M85.3,148.4l-12.2,7.2h-0.5l-9.2-5.3l6.8-3.9l-3.3-2.1c-2.2,1.4-4.4,2.7-6.6,4.1c0,1.2,0,2.4,0,3.6
					c3.1,1.8,6.1,3.6,9.2,5.4l-9.2,5.3v3.9l9.1,5.3l-9.2,5.4l0.2,3.8c4.2-2.4,8.4-4.8,12.5-7.2c3,1.8,6,3.5,9.1,5.3l-6.6,3.9l3.3,2
					c2.3-1.4,4.5-2.7,6.8-4.1c-0.1-1.2-0.1-2.4-0.2-3.6l-8.9-5.4l8.9-5.3v-3.8l-9.2-5.4l9.4-5.3v-3.8H85.3z M82,164.7l-9.4,5.4
					l-9.1-5.4l9.4-5.3L82,164.7z"/>
			</g>
		</g>
	</g>
	
		<image style="overflow:visible;" width="438" height="438" xlink:href="../Rust_programming_language_black_logo.png"  transform="matrix(9.785510e-02 0 0 9.785510e-02 51.432 52.8634)">
	</image>
</g>
</svg>
